<svg xmlns="http://www.w3.org/2000/svg" version="1.1" xmlns:xlink="http://www.w3.org/1999/xlink" width="500" height="500"><svg version="1.1" xmlns="http://www.w3.org/2000/svg" width="500" height="500">
<path d="M0 0 C165 0 330 0 500 0 C500 165 500 330 500 500 C335 500 170 500 0 500 C0 335 0 170 0 0 Z " fill="#FEFEFE" transform="translate(0,0)"></path>
<path d="M0 0 C0.73277161 -0.00295074 1.46554321 -0.00590149 2.22052002 -0.00894165 C14.30319681 -0.01999519 25.56261562 1.09485251 37.25 4.3125 C38.10787109 4.53574951 38.96574219 4.75899902 39.84960938 4.98901367 C79.7096321 15.49903554 115.23478138 38.68705947 136.83203125 74.47265625 C139.08644662 78.36012869 141.18294842 82.32311099 143.25 86.3125 C143.89299987 87.51965341 144.53622373 88.72668755 145.1796875 89.93359375 C152.25362621 103.55016676 156.32480916 117.34591736 159.25 132.3125 C159.47816406 133.39273438 159.70632813 134.47296875 159.94140625 135.5859375 C163.40568475 154.8211622 163.48395463 178.61063612 157.25 197.3125 C161.54 197.3125 165.83 197.3125 170.25 197.3125 C170.25 197.6425 170.25 197.9725 170.25 198.3125 C142.90156809 200.76037777 115.46438908 200.46336302 88.03285789 200.4468255 C82.36764865 200.44423914 76.70244078 200.44665826 71.03723145 200.44821167 C61.47208361 200.45002377 51.90694352 200.44766109 42.34179688 200.44287109 C32.71418751 200.43810315 23.08659368 200.43799081 13.45898438 200.44287109 C-33.73487779 200.46614093 -80.92669252 200.44724283 -128.1179409 199.8985877 C-130.82186699 199.86743958 -133.52580629 199.83778119 -136.22975159 199.80835342 C-140.38796029 199.76240459 -144.54606409 199.71098852 -148.70414543 199.6546998 C-150.20675244 199.63485769 -151.7093792 199.61644936 -153.21202278 199.59960318 C-155.24699667 199.57623012 -157.281891 199.54621037 -159.31677246 199.51583862 C-161.01191105 199.49308774 -161.01191105 199.49308774 -162.74129486 199.46987724 C-165.51474732 199.32480543 -168.049219 198.93981902 -170.75 198.3125 C-170.75 197.9825 -170.75 197.6525 -170.75 197.3125 C-165.8 197.3125 -160.85 197.3125 -155.75 197.3125 C-156.224375 195.1675 -156.69875 193.0225 -157.1875 190.8125 C-159.32481379 181.1481246 -159.93648559 172.11733025 -159.93530273 162.23339844 C-159.93747297 160.21267086 -159.95563516 158.19250532 -159.97460938 156.171875 C-160.03808931 112.92087607 -140.31664123 74.66825689 -110.8125 44.0625 C-81.54826698 15.54504167 -40.52979962 0.14328889 0 0 Z " fill="#FEFCFC" transform="translate(249.75,89.6875)"></path>
<path d="M0 0 C0.73277161 -0.00295074 1.46554321 -0.00590149 2.22052002 -0.00894165 C14.30319681 -0.01999519 25.56261562 1.09485251 37.25 4.3125 C38.10787109 4.53574951 38.96574219 4.75899902 39.84960938 4.98901367 C79.7096321 15.49903554 115.23478138 38.68705947 136.83203125 74.47265625 C139.08644662 78.36012869 141.18294842 82.32311099 143.25 86.3125 C143.89299987 87.51965341 144.53622373 88.72668755 145.1796875 89.93359375 C152.25362621 103.55016676 156.32480916 117.34591736 159.25 132.3125 C159.47816406 133.39273438 159.70632813 134.47296875 159.94140625 135.5859375 C163.40568475 154.8211622 163.48395463 178.61063612 157.25 197.3125 C161.54 197.3125 165.83 197.3125 170.25 197.3125 C170.25 197.6425 170.25 197.9725 170.25 198.3125 C142.90156809 200.76037777 115.46438908 200.46336302 88.03285789 200.4468255 C82.36764865 200.44423914 76.70244078 200.44665826 71.03723145 200.44821167 C61.47208361 200.45002377 51.90694352 200.44766109 42.34179688 200.44287109 C32.71418751 200.43810315 23.08659368 200.43799081 13.45898438 200.44287109 C-33.73487779 200.46614093 -80.92669252 200.44724283 -128.1179409 199.8985877 C-130.82186699 199.86743958 -133.52580629 199.83778119 -136.22975159 199.80835342 C-140.38796029 199.76240459 -144.54606409 199.71098852 -148.70414543 199.6546998 C-150.20675244 199.63485769 -151.7093792 199.61644936 -153.21202278 199.59960318 C-155.24699667 199.57623012 -157.281891 199.54621037 -159.31677246 199.51583862 C-161.01191105 199.49308774 -161.01191105 199.49308774 -162.74129486 199.46987724 C-165.51474732 199.32480543 -168.049219 198.93981902 -170.75 198.3125 C-170.75 197.9825 -170.75 197.6525 -170.75 197.3125 C-165.8 197.3125 -160.85 197.3125 -155.75 197.3125 C-156.224375 195.1675 -156.69875 193.0225 -157.1875 190.8125 C-159.32481379 181.1481246 -159.93648559 172.11733025 -159.93530273 162.23339844 C-159.93747297 160.21267086 -159.95563516 158.19250532 -159.97460938 156.171875 C-160.03808931 112.92087607 -140.31664123 74.66825689 -110.8125 44.0625 C-81.54826698 15.54504167 -40.52979962 0.14328889 0 0 Z M-108.25048828 65.60595703 C-128.14217 88.24399923 -142.76306608 119.48928021 -142.953125 149.95703125 C-142.95882507 150.68508469 -142.96452515 151.41313812 -142.97039795 152.16325378 C-142.9798092 153.703792 -142.98636645 155.24435 -142.99023438 156.78491211 C-142.99981347 159.08030244 -143.0308185 161.37474601 -143.0625 163.66992188 C-143.29221843 180.43218183 -143.29221843 180.43218183 -138.75 196.3125 C-46.68 196.3125 45.39 196.3125 140.25 196.3125 C143.86163445 179.40262766 143.86163445 179.40262766 144.75 162.625 C144.73864014 161.35261475 144.72728027 160.08022949 144.71557617 158.76928711 C143.93196457 119.91622283 128.61298639 82.9701222 100.64404297 55.74951172 C73.65232725 30.68636947 38.75940777 17.12310151 2.13110352 17.12719727 C-0.04756345 17.12501496 -2.22571927 17.10681341 -4.40429688 17.08789062 C-44.51830907 16.92250377 -81.47943505 36.43928382 -108.25048828 65.60595703 Z " fill="#CE1F21" transform="translate(249.75,89.6875)"></path>
<path d="M0 0 C4.17699766 0.00259573 8.35399353 0.0001656 12.53099132 -0.00138617 C19.5613146 -0.00319202 26.59162729 -0.00084849 33.62194896 0.00395441 C40.72416953 0.00875229 47.82636906 0.00880725 54.92858958 0.00395441 C94.38892878 -0.02239362 133.82593335 0.03725214 173.27453685 1.1343255 C173.60453685 1.7943255 173.93453685 2.4543255 174.27453685 3.1343255 C173.34254466 3.09049738 172.41055247 3.04666925 171.4503181 3.001513 C162.92220369 3.01875894 158.26839625 4.04194413 151.60046458 9.77983332 C134.52477988 24.34416341 112.0586483 33.53767813 90.27453685 38.1343255 C89.14402904 38.43209894 88.01352122 38.72987238 86.8487556 39.03666925 C50.61369662 47.6301204 5.76029519 39.34862689 -25.72546315 20.1343255 C-32.35694729 15.93351709 -38.99163018 11.63072632 -44.81921315 6.3530755 C-48.02079105 3.90886012 -49.63623687 3.46685817 -53.60046315 3.3218255 C-54.56726003 3.27413019 -55.5340569 3.22643488 -56.53015065 3.17729425 C-57.25460378 3.16311457 -57.9790569 3.14893488 -58.72546315 3.1343255 C-58.72546315 2.4743255 -58.72546315 1.8143255 -58.72546315 1.1343255 C-39.14062506 0.17381011 -19.60247975 -0.01609945 0 0 Z " fill="#CF2224" transform="translate(194.72546315193176,368.865674495697)"></path>
<path d="M0 0 C3.60868306 2.04762353 6.81367517 4.34753912 10 7 C10.65871094 7.5465625 11.31742188 8.093125 11.99609375 8.65625 C16.68916672 12.93552514 19.90445043 17.99340169 22 24 C22.12890625 26.8046875 22.12890625 26.8046875 22 29 C22.51046875 28.7834375 23.0209375 28.566875 23.546875 28.34375 C34.60152639 24.11005372 45.22372117 25.38365566 56 30 C62.20420268 33.52636742 66.1034939 39.177613 68 46 C69.2220021 55.34588967 69.22618065 64.89209357 64 73 C63.57589844 73.76570313 63.15179688 74.53140625 62.71484375 75.3203125 C59.2183171 81.2225274 55.04104821 84.79561791 49 88 C48.29875 88.37898438 47.5975 88.75796875 46.875 89.1484375 C42.46206204 90.45553054 38.13763441 90.24757433 33.5625 90.1875 C32.63373047 90.18685547 31.70496094 90.18621094 30.74804688 90.18554688 C25.95179913 90.15482358 21.79293283 89.79882214 17 89 C17 100.55 17 112.1 17 124 C14.36 122.02 11.72 120.04 9 118 C6.33707416 116.67520106 3.81558483 115.5083438 1.0625 114.4375 C0.32507568 114.14576904 -0.41234863 113.85403809 -1.17211914 113.5534668 C-17.46365614 107.24432793 -33.70361804 104.35179729 -51 102 C-51 101.67 -51 101.34 -51 101 C-29.79628742 100.42949652 -9.82984407 103.29712739 10 111 C9.91218733 108.47765681 9.80521993 105.9584835 9.6875 103.4375 C9.66494141 102.73302734 9.64238281 102.02855469 9.61914062 101.30273438 C9.31560292 95.31476333 8.15965041 90.33755265 3.9609375 85.79296875 C-0.26528712 83.2338169 -4.68333389 81.80796857 -9.375 80.3125 C-10.29539062 80.00505859 -11.21578125 79.69761719 -12.1640625 79.38085938 C-26.16457634 74.81069164 -40.26256495 75.22119705 -54.6875 77.3125 C-55.52434326 77.43012695 -56.36118652 77.54775391 -57.22338867 77.66894531 C-63.1268931 78.60299498 -68.00926081 79.89866419 -72.25 84.375 C-73.91817617 86.87726425 -74.93397619 89.20402526 -76 92 C-91.08236741 92.75098925 -103.58703747 90.43920778 -115.15234375 80.0703125 C-122.93789381 72.15427836 -126.43385173 62.75071321 -126.5625 51.75 C-126.45792724 45.42857689 -125.33359075 40.38949864 -122 35 C-121.443125 33.96875 -120.88625 32.9375 -120.3125 31.875 C-110.41049195 19.5643954 -96.06227432 17.11428885 -81.37426758 14.07275391 C-74.21619699 12.57896975 -67.31293288 11.12126998 -60.71899414 7.84960938 C-59 7 -59 7 -56 6 C-56 6.66 -56 7.32 -56 8 C-64.47546331 15.44187023 -75.86225508 18.69645242 -86.6875 21.0625 C-97.30093494 23.38523706 -109.05380586 26.29243368 -115.2734375 35.984375 C-119.37787714 43.72750227 -120.61812153 52.99908074 -118.31640625 61.53515625 C-114.88502592 69.83596427 -109.18568175 76.18316959 -101 80 C-95.11294208 81.52017779 -87.69975047 82.40479247 -81.921875 80.2109375 C-79.09732118 78.41474066 -78.06678361 77.20035083 -77 74 C-77.598125 73.74347656 -78.19625 73.48695313 -78.8125 73.22265625 C-84.96063739 69.7862866 -89.02734219 61.55738664 -91 55 C-90.505 54.01 -90.505 54.01 -90 53 C-88.93072266 54.21236328 -88.93072266 54.21236328 -87.83984375 55.44921875 C-77.90818209 67.07414391 -77.90818209 67.07414391 -63.91333008 72.18994141 C-61.54262635 72.26902439 -59.18435532 72.277525 -56.8125 72.25 C-55.97187012 72.24250732 -55.13124023 72.23501465 -54.26513672 72.22729492 C-43.03880764 72.21775311 -43.03880764 72.21775311 -33 67.875 C-30.53975286 64.33839473 -29.31932486 61.09685087 -28 57 C-27.67 57 -27.34 57 -27 57 C-26.97305149 58.95825873 -26.95362782 60.91662226 -26.9375 62.875 C-26.92589844 63.96554688 -26.91429687 65.05609375 -26.90234375 66.1796875 C-27 69 -27 69 -28 71 C-20.19909859 69.35770497 -13.53313813 66.76863022 -8.35546875 60.48046875 C-5.2758992 54.84494523 -4.27414523 48.24331161 -3 42 C-2.67 42 -2.34 42 -2 42 C0.58505957 51.69397339 -0.99379986 60.34454345 -6 69 C-8.171875 70.84765625 -8.171875 70.84765625 -10 72 C-8.47827113 73.52172887 -7.12019862 73.24256289 -5 73.3125 C4.16758797 73.19590111 10.53105949 68.31997582 16.875 62.1875 C17.431875 61.5996875 17.431875 61.5996875 18 61 C17.37854931 67.52523222 14.52825358 71.47174642 10 76 C10 76.66 10 77.32 10 78 C16.35072816 81.33625683 21.64810199 82.71877484 28.8125 82.625 C29.68471191 82.61734619 30.55692383 82.60969238 31.45556641 82.60180664 C40.62908471 82.28808762 48.04499561 79.44348978 54.5 72.75 C59.79617507 65.62053356 62.15717379 57.82345013 61 49 C59.86090242 43.28417106 57.45088573 39.93104217 53.01171875 36.2265625 C45.80543212 31.83282657 37.02916566 31.85047642 28.9921875 33.6875 C22.82104343 35.75027796 17.92065391 38.77021154 13 43 C13.144375 42.360625 13.28875 41.72125 13.4375 41.0625 C13.623125 40.051875 13.80875 39.04125 14 38 C14.165 37.34515625 14.33 36.6903125 14.5 36.015625 C15.47402481 31.11071433 14.98459047 28.18854263 12.5 23.8125 C7.33613277 16.17329274 1.11513074 11.10075279 -8 9 C-21.6904547 7.75158764 -32.76525439 10.73776627 -45.1875 16.375 C-59.33127161 22.60684297 -74.30688459 28.5812265 -90 28 C-87.26712566 26.17808377 -84.78516261 25.13397188 -81.70996094 24.04858398 C-68.37484111 19.34069332 -56.92158043 12.50394156 -45.24121094 4.61889648 C-30.70144901 -5.08057115 -16.36795719 -7.32250716 0 0 Z " fill="#CE1F21" transform="translate(281,138)"></path>
<path d="M0 0 C1.5232284 1.43496185 3.04422792 2.8722951 4.5625 4.3125 C5.95252844 5.52750661 7.34807868 6.73623536 8.75 7.9375 C21.60048041 19.22335106 30.75920407 32.18063337 38.5625 47.3125 C38.88347656 47.93382812 39.20445312 48.55515625 39.53515625 49.1953125 C55.93143983 81.43905008 60.96670185 119.15060472 51.5625 154.3125 C50.5625 155.3125 50.5625 155.3125 47.5 155.375 C46.530625 155.354375 45.56125 155.33375 44.5625 155.3125 C45.05117736 150.99585002 45.66833371 146.81580417 46.5859375 142.5703125 C47.85609837 135.63653094 47.8634267 128.74604026 47.82324219 121.7253418 C47.81256699 119.51387802 47.82317023 117.30323539 47.8359375 115.09179688 C47.84889593 103.02447322 46.75398251 91.21493056 43.4375 79.5625 C43.11990723 78.44125732 43.11990723 78.44125732 42.79589844 77.29736328 C37.37363408 59.05155813 28.1974928 40.6061405 15.5625 26.3125 C14.85351562 25.49523437 14.14453125 24.67796875 13.4140625 23.8359375 C11.16812689 21.29054381 8.87558661 18.79692636 6.5625 16.3125 C5.83804687 15.51070312 5.11359375 14.70890625 4.3671875 13.8828125 C-18.07056824 -9.92402664 -53.46682728 -25.75892548 -86.03942871 -27.03114319 C-89.98473247 -27.14331107 -93.92824865 -27.17855033 -97.875 -27.1875 C-98.99633331 -27.19437332 -98.99633331 -27.19437332 -100.14031982 -27.2013855 C-135.06694619 -27.28634761 -166.60040976 -14.59532876 -193.4375 7.3125 C-194.20964844 7.9415625 -194.98179687 8.570625 -195.77734375 9.21875 C-200.49732893 13.20491791 -204.4965941 17.56670773 -208.4375 22.3125 C-209.33162934 23.32457396 -210.22619537 24.33626222 -211.12109375 25.34765625 C-230.03161184 47.25919814 -243.45837479 78.74107052 -243.640625 107.95703125 C-243.64632507 108.68508469 -243.65202515 109.41313812 -243.65789795 110.16325378 C-243.6673092 111.703792 -243.67386645 113.24435 -243.67773438 114.78491211 C-243.68731347 117.08030244 -243.7183185 119.37474601 -243.75 121.66992188 C-243.81485707 131.01725851 -242.93987144 139.77695825 -241.08496094 148.94018555 C-240.4375 152.3125 -240.4375 152.3125 -240.4375 155.3125 C-242.7475 155.3125 -245.0575 155.3125 -247.4375 155.3125 C-247.92253256 153.16798495 -248.40020405 151.02180465 -248.875 148.875 C-249.14183594 147.68003906 -249.40867187 146.48507812 -249.68359375 145.25390625 C-251.50229913 136.21831437 -251.62025418 127.2599034 -251.625 118.0625 C-251.64336914 116.21205078 -251.64336914 116.21205078 -251.66210938 114.32421875 C-251.67503218 106.13116134 -250.94368337 98.362814 -249.4375 90.3125 C-249.30206787 89.56323242 -249.16663574 88.81396484 -249.02709961 88.04199219 C-243.88303117 61.15088524 -231.53483777 35.64720785 -212.69921875 15.75 C-210.41195542 13.35582485 -210.41195542 13.35582485 -208.45703125 10.765625 C-204.74712395 6.25919989 -200.00842743 2.90562595 -195.4375 -0.6875 C-194.5403125 -1.41195312 -193.643125 -2.13640625 -192.71875 -2.8828125 C-138.11122891 -45.67915628 -52.83442337 -47.29403551 0 0 Z " fill="#FDF6F6" transform="translate(348.4375,131.6875)"></path>
<path d="M0 0 C0.77853333 0.00242706 1.55706665 0.00485413 2.35919189 0.00735474 C41.30831475 0.24128191 77.20307841 16.05940588 104.8125 43.4375 C132.48189235 71.64167893 146.60058866 107.60649744 146.75 146.875 C146.75394775 147.62690613 146.75789551 148.37881226 146.76196289 149.15350342 C146.7910628 161.01772485 145.81743208 172.06255128 142.4375 183.5 C144.4175 183.5 146.3975 183.5 148.4375 183.5 C142.63833138 189.29916862 123.89517477 186.63117338 115.78805542 186.63552856 C113.95660389 186.63358469 112.12515248 186.63153654 110.29370117 186.62939453 C108.31766223 186.63075357 106.34162355 186.63253631 104.36558533 186.63470459 C99.0222809 186.63923913 93.67899595 186.63750045 88.33569121 186.6343255 C82.64105545 186.63175756 76.94642113 186.63415374 71.25178528 186.63571167 C61.62089753 186.63753048 51.99001744 186.63514492 42.35913086 186.63037109 C32.65632622 186.62561487 22.95353699 186.62547449 13.25073242 186.63037109 C-46.69447022 186.65992858 -106.62388709 186.42603584 -166.5625 185.5 C-166.5625 185.17 -166.5625 184.84 -166.5625 184.5 C-158.9725 184.17 -151.3825 183.84 -143.5625 183.5 C-143.871875 181.31375 -144.18125 179.1275 -144.5 176.875 C-144.67402344 175.64523437 -144.84804687 174.41546875 -145.02734375 173.1484375 C-145.34137011 171.00755706 -145.68106532 168.86966121 -146.08105469 166.74316406 C-148.85070519 148.08594435 -147.79172528 126.57378452 -142.5625 108.5 C-142.23507813 107.27152344 -141.90765625 106.04304688 -141.5703125 104.77734375 C-135.05445075 82.92304831 -123.72937761 63.58843516 -108.0625 47.1640625 C-106.03617377 45.00475861 -104.20716249 42.81883066 -102.375 40.5 C-77.94403243 12.52915352 -35.91592923 -0.22874848 0 0 Z M-109.06298828 51.79345703 C-128.95467 74.43149923 -143.57556608 105.67678021 -143.765625 136.14453125 C-143.77132507 136.87258469 -143.77702515 137.60063812 -143.78289795 138.35075378 C-143.7923092 139.891292 -143.79886645 141.43185 -143.80273438 142.97241211 C-143.81231347 145.26780244 -143.8433185 147.56224601 -143.875 149.85742188 C-144.10471843 166.61968183 -144.10471843 166.61968183 -139.5625 182.5 C-47.4925 182.5 44.5775 182.5 139.4375 182.5 C143.04913445 165.59012766 143.04913445 165.59012766 143.9375 148.8125 C143.92614014 147.54011475 143.91478027 146.26772949 143.90307617 144.95678711 C143.11946457 106.10372283 127.80048639 69.1576222 99.83154297 41.93701172 C72.83982725 16.87386947 37.94690777 3.31060151 1.31860352 3.31469727 C-0.86006345 3.31251496 -3.03821927 3.29431341 -5.21679688 3.27539062 C-45.33080907 3.11000377 -82.29193505 22.62678382 -109.06298828 51.79345703 Z " fill="#D12A2C" transform="translate(250.5625,103.5)"></path>
<path d="M0 0 C47.85 0 95.7 0 145 0 C128.3157199 16.6842801 97.27547196 20.21839428 75 20.3125 C49.22266026 20.0905572 21.54174702 16.58339146 0 1 C0 0.67 0 0.34 0 0 Z " fill="#FEFDFD" transform="translate(178,373)"></path>
<path d="M0 0 C-3.18809123 3.50452709 -6.76319288 5.92293339 -10.8125 8.3125 C-11.47628662 8.70421387 -12.14007324 9.09592773 -12.82397461 9.49951172 C-31.22744398 20.18287244 -51.00871933 26.68424485 -72 30 C-72.7439502 30.17128418 -73.48790039 30.34256836 -74.25439453 30.51904297 C-79.63743703 31.4620088 -85.14478256 31.22576957 -90.59741211 31.24023438 C-92.76782639 31.24980305 -94.93723502 31.28079313 -97.10742188 31.3125 C-127.40213215 31.54135013 -159.05879155 20.53256335 -183 2 C-183 1.67 -183 1.34 -183 1 C-173.82277397 -0.21018365 -168.13566376 2.12160969 -160.5625 6.83984375 C-133.1290378 23.90339734 -93.22924769 27.90863217 -61.9921875 21.10546875 C-46.19873572 16.89737158 -29.37454923 11.70150152 -15.6875 2.5625 C-10.57776122 -0.71922321 -5.91139075 -0.60687281 0 0 Z " fill="#FDF6F6" transform="translate(343,372)"></path>
<path d="M0 0 C2.42130331 2.42130331 2.52840504 3.80111377 3.125 7.125 C3.29257813 8.03507813 3.46015625 8.94515625 3.6328125 9.8828125 C3.81457031 10.93082031 3.81457031 10.93082031 4 12 C4.84175781 11.84273437 5.68351563 11.68546875 6.55078125 11.5234375 C20.32219738 9.43355102 31.89197105 12.0829569 45 16 C49.16223432 17.22402594 53.3289476 18.43137107 57.5 19.625 C58.55106934 19.92615723 59.60213867 20.22731445 60.68505859 20.53759766 C70.03100457 23.14566771 79.38163977 24.79627196 89 26 C85.20169839 29.79830161 78.62074631 28.42743836 73.5 28.4375 C72.83260803 28.44056152 72.16521606 28.44362305 71.4776001 28.44677734 C60.61674731 28.45975289 50.3895769 27.25004303 39.77929688 24.77905273 C28.2665242 21.97216028 28.2665242 21.97216028 17 24 C17 26.31 17 28.62 17 31 C23.06970164 32.76829009 28.44746755 33.27135657 34.75 33.1953125 C35.64871826 33.1924826 36.54743652 33.18965271 37.47338867 33.18673706 C40.31573365 33.17563125 43.15775186 33.15054505 46 33.125 C47.9387975 33.11495777 49.87759999 33.10583411 51.81640625 33.09765625 C56.54439482 33.07572345 61.2721422 33.04126084 66 33 C61.2160517 35.68482656 56.24924851 35.97464769 50.875 36.625 C49.8034668 36.75543701 48.73193359 36.88587402 47.62792969 37.02026367 C13.26784265 40.94530193 13.26784265 40.94530193 1 32 C-2.49265855 28.33681381 -3.53314095 26.11871824 -3.4375 21.0625 C-3.23000659 13.80853025 -1.76937002 7.02482027 0 0 Z " fill="#CE1F21" transform="translate(206,239)"></path>
<path d="M0 0 C2.4375 2.3125 2.4375 2.3125 4 5 C4.0625 8.0625 4.0625 8.0625 3 11 C-3.81755632 18.01807268 -12.99627864 19.23953947 -22.3125 19.375 C-29.17681287 19.43116322 -33.74719624 18.72087426 -39 14 C-39.53496094 13.46375 -40.06992187 12.9275 -40.62109375 12.375 C-44.31769741 10.23837523 -48.04949232 10.42735763 -52.25 10.3125 C-53.51070313 10.26125977 -53.51070313 10.26125977 -54.796875 10.20898438 C-56.86412204 10.12676432 -58.93203874 10.06169843 -61 10 C-61 8.02 -61 6.04 -61 4 C-59.33324219 4.01353516 -59.33324219 4.01353516 -57.6328125 4.02734375 C-48.85297443 3.91770689 -43.13102148 3.43803043 -36.12890625 -2.34375 C-26.61066686 -9.7487656 -9.35448171 -6.08041311 0 0 Z " fill="#CE1B1D" transform="translate(364,241)"></path>
<path d="M0 0 C3.361875 -0.0825 6.72375 -0.165 10.1875 -0.25 C11.23832764 -0.28641602 12.28915527 -0.32283203 13.37182617 -0.36035156 C17.74859079 -0.41239095 20.29968768 -0.42528377 24.11328125 1.890625 C26.3666611 4.40993167 26.93837956 5.44541603 27.3125 8.8125 C26.93193325 12.69428088 25.63085134 14.20472045 23 17 C23.804375 17.45375 24.60875 17.9075 25.4375 18.375 C28 20 28 20 29 22 C29.64507919 27.20671061 29.9173523 30.81709835 26.625 35.0625 C23.0355194 37.71187854 21.3880369 38.12291975 16.9921875 38.09765625 C16.1038623 38.09515869 15.21553711 38.09266113 14.30029297 38.09008789 C13.16994629 38.08098389 12.03959961 38.07187988 10.875 38.0625 C5.491875 38.0315625 5.491875 38.0315625 0 38 C0 25.46 0 12.92 0 0 Z " fill="#050505" transform="translate(301,311)"></path>
<path d="M0 0 C3.34125 -0.103125 6.6825 -0.20625 10.125 -0.3125 C11.68758545 -0.38078003 11.68758545 -0.38078003 13.28173828 -0.45043945 C17.78746204 -0.51760498 21.02445442 -0.52926199 24.6171875 2.39453125 C27.19527305 5.21351987 27.89796925 6.08172321 28.3125 9.8125 C27.84670088 14.56365098 25.26038165 16.73961835 22 20 C22.8971875 21.2065625 22.8971875 21.2065625 23.8125 22.4375 C26.89850899 27.05004013 29 32.4280911 29 38 C26.69 38 24.38 38 22 38 C21.61908203 37.00419922 21.61908203 37.00419922 21.23046875 35.98828125 C18.81801128 29.08316236 18.81801128 29.08316236 15 23 C12.69 22.67 10.38 22.34 8 22 C8 27.28 8 32.56 8 38 C5.36 38 2.72 38 0 38 C0 25.46 0 12.92 0 0 Z " fill="#0C0C0C" transform="translate(111,311)"></path>
<path d="M0 0 C2.31 0 4.62 0 7 0 C7.33 0.99 7.66 1.98 8 3 C8.40476563 2.51402344 8.80953125 2.02804687 9.2265625 1.52734375 C11.96040588 -0.8271337 14.29616804 -0.47433816 17.77734375 -0.35546875 C21.09683325 0.17541621 22.75921614 1.55550852 25 4 C28.0704677 8.90842372 27.48604482 14.41422341 27 20 C25.47565341 24.34438777 23.88797942 26.59577244 20 29 C17.4921875 29.36328125 17.4921875 29.36328125 14.875 29.3125 C14.00617188 29.30863281 13.13734375 29.30476563 12.2421875 29.30078125 C10 29 10 29 8 27 C7.67 31.62 7.34 36.24 7 41 C4.69 41 2.38 41 0 41 C0 27.47 0 13.94 0 0 Z " fill="#070707" transform="translate(222,320)"></path>
<path d="M0 0 C3.35678519 -0.15132452 6.71183897 -0.25092352 10.07080078 -0.33984375 C11.66492798 -0.42202148 11.66492798 -0.42202148 13.29125977 -0.50585938 C20.80673066 -0.63567479 20.80673066 -0.63567479 23.43945312 1.72094727 C24.38356812 2.98477026 25.3079803 4.26357953 26.2109375 5.55712891 C28.10480382 7.60170738 29.25751837 7.77996995 32.00048828 8.0625 C33.52327786 8.10844624 35.04747629 8.11960245 36.57080078 8.09765625 C37.35455078 8.11376953 38.13830078 8.12988281 38.94580078 8.14648438 C40.86215227 8.18153959 42.77918693 8.17509645 44.69580078 8.16015625 C44.69580078 9.81015625 44.69580078 11.46015625 44.69580078 13.16015625 C43.59880859 13.17433594 42.50181641 13.18851563 41.37158203 13.203125 C39.9171138 13.25004333 38.46268801 13.29829063 37.00830078 13.34765625 C36.28707031 13.35345703 35.56583984 13.35925781 34.82275391 13.36523438 C30.66618825 13.53605214 29.11018081 13.8128823 25.80126953 16.5859375 C25.10646484 17.43542969 24.41166016 18.28492188 23.69580078 19.16015625 C21.30733251 21.54862452 20.80359503 21.41208065 17.55322266 21.41894531 C16.69893677 21.42524963 15.84465088 21.43155396 14.96447754 21.43804932 C14.04050171 21.43400085 13.11652588 21.42995239 12.16455078 21.42578125 C11.21769409 21.4276947 10.2708374 21.42960815 9.29528809 21.43157959 C7.29125707 21.43294198 5.28721724 21.42924181 3.28320312 21.42089844 C0.20829525 21.41019972 -2.86602835 21.42079197 -5.94091797 21.43359375 C-7.88492968 21.43227216 -9.82894103 21.42970979 -11.77294922 21.42578125 C-12.69692505 21.42982971 -13.62090088 21.43387817 -14.57287598 21.43804932 C-15.85430481 21.42859283 -15.85430481 21.42859283 -17.16162109 21.41894531 C-17.91503784 21.41735413 -18.66845459 21.41576294 -19.44470215 21.41412354 C-21.30419922 21.16015625 -21.30419922 21.16015625 -23.30419922 19.16015625 C-22.30419922 18.16015625 -22.30419922 18.16015625 -19.06958008 18.04663086 C-17.63605796 18.04678994 -16.20253009 18.05248218 -14.76904297 18.0625 C-13.6391671 18.06462242 -13.6391671 18.06462242 -12.48646545 18.06678772 C-10.07150362 18.07240249 -7.65663321 18.08495742 -5.24169922 18.09765625 C-3.60823701 18.10266935 -1.97477336 18.10723259 -0.34130859 18.11132812 C3.67109663 18.12237671 7.68343319 18.13965119 11.69580078 18.16015625 C11.69580078 17.17015625 11.69580078 16.18015625 11.69580078 15.16015625 C0.47580078 15.16015625 -10.74419922 15.16015625 -22.30419922 15.16015625 C-22.30419922 14.17015625 -22.30419922 13.18015625 -22.30419922 12.16015625 C-10.75419922 12.16015625 0.79580078 12.16015625 12.69580078 12.16015625 C12.20080078 11.17015625 12.20080078 11.17015625 11.69580078 10.16015625 C0.14580078 9.83015625 -11.40419922 9.50015625 -23.30419922 9.16015625 C-23.30419922 8.50015625 -23.30419922 7.84015625 -23.30419922 7.16015625 C-11.75419922 7.16015625 -0.20419922 7.16015625 11.69580078 7.16015625 C11.20080078 5.67515625 11.20080078 5.67515625 10.69580078 4.16015625 C-0.52419922 3.83015625 -11.74419922 3.50015625 -23.30419922 3.16015625 C-23.30419922 2.50015625 -23.30419922 1.84015625 -23.30419922 1.16015625 C-17.67957387 0.80822438 -12.05577949 0.51870923 -6.42480469 0.2890625 C-4.28286334 0.20058299 -2.14125419 0.1037877 0 0 Z " fill="#CF2324" transform="translate(156.30419921875,236.83984375)"></path>
<path d="M0 0 C3.91710508 2.89119661 6.13961672 6.16154396 6.97265625 10.92578125 C7.22526392 16.58199638 5.69627964 21.34840046 2.125 25.8125 C-2.42180266 29.222602 -9.0094004 28.45955834 -14.375 27.9375 C-18.62088736 25.64472083 -19.87545284 23.40409987 -21.375 18.9375 C-22.06885579 14.04047931 -22.5560992 9.07144917 -20.1015625 4.63671875 C-14.51670722 -1.94251321 -8.16855046 -2.5715807 0 0 Z " fill="#090909" transform="translate(357.375,321.0625)"></path>
<path d="M0 0 C3.68137204 1.56654129 6.19896612 3.39793224 8 7 C8 9.97 8 12.94 8 16 C1.73 16 -4.54 16 -11 16 C-10.01 17.98 -9.02 19.96 -8 22 C-1.68731397 22.37552165 -1.68731397 22.37552165 4 20 C4.99 20.66 5.98 21.32 7 22 C6.6449979 24.57376521 6.23494708 25.77007555 4.35546875 27.609375 C1.28936774 29.41954409 -0.89266762 29.43340193 -4.4375 29.4375 C-5.54996094 29.45683594 -6.66242188 29.47617187 -7.80859375 29.49609375 C-11.69854634 28.89141324 -13.27598277 27.81049397 -16 25 C-18.85024145 19.69924608 -18.91285063 13.85616886 -18 8 C-13.70051803 0.23191755 -8.3845623 -0.74059225 0 0 Z " fill="#070707" transform="translate(273,320)"></path>
<path d="M0 0 C3.68137204 1.56654129 6.19896612 3.39793224 8 7 C8 9.97 8 12.94 8 16 C1.73 16 -4.54 16 -11 16 C-10.01 17.98 -9.02 19.96 -8 22 C-3.9899066 22.17864631 -3.9899066 22.17864631 0 22 C0.66 21.34 1.32 20.68 2 20 C4.26274788 20.35355436 5.95088852 20.97544426 8 22 C6.59222443 25.4021243 5.14159195 27.07745313 2 29 C-2.8498984 29.88242157 -7.85851848 30.12155558 -12.3046875 27.79296875 C-16.43336367 24.40951006 -17.70630764 21.91766505 -18.23828125 16.6328125 C-18.40898739 10.86474192 -17.96466326 7.51531093 -14 3 C-9.6381399 -0.89684304 -5.61011681 -0.6739426 0 0 Z " fill="#060606" transform="translate(162,320)"></path>
<path d="M0 0 C2.64 0 5.28 0 8 0 C8.26554687 0.56589844 8.53109375 1.13179688 8.8046875 1.71484375 C9.15789062 2.44832031 9.51109375 3.18179687 9.875 3.9375 C10.22304688 4.66839844 10.57109375 5.39929688 10.9296875 6.15234375 C11.8684977 8.16332459 11.8684977 8.16332459 14 9 C14.28875 8.071875 14.5775 7.14375 14.875 6.1875 C16 3 16 3 18 0 C21.625 -0.1875 21.625 -0.1875 25 0 C23.96224556 3.545661 22.74966804 6.48193032 20.75 9.5625 C18.62411497 12.75132585 18.62411497 12.75132585 19.7265625 15.3515625 C20.14679688 16.22554688 20.56703125 17.09953125 21 18 C21.42539062 18.95519531 21.85078125 19.91039062 22.2890625 20.89453125 C22.72992188 21.85746094 23.17078125 22.82039063 23.625 23.8125 C24.07101562 24.78832031 24.51703125 25.76414062 24.9765625 26.76953125 C25.31429688 27.50558594 25.65203125 28.24164063 26 29 C23.36 29 20.72 29 18 29 C16.35 26.03 14.7 23.06 13 20 C10.04275964 23.64412947 10.04275964 23.64412947 8.75 26.75 C7.88375 27.86375 7.88375 27.86375 7 29 C3.3125 29.3125 3.3125 29.3125 0 29 C0.89351715 26.61728761 1.81998372 24.32349789 3.05859375 22.09765625 C4.83055237 18.90322567 5.98544664 16.69856104 6.0625 13 C4.83505165 9.53426348 3.12796772 6.75929559 1.05859375 3.734375 C0 2 0 2 0 0 Z " fill="#0B0B0B" transform="translate(367,320)"></path>
<path d="M0 0 C2.12186938 1.91652718 2.64676678 2.93957887 2.9375 5.75 C1.2875 6.74 -0.3625 7.73 -2.0625 8.75 C-2.43375 8.255 -2.805 7.76 -3.1875 7.25 C-5.85410885 5.11671292 -7.74143663 5.39669539 -11.0625 5.75 C-13.31325045 7.58111848 -13.31325045 7.58111848 -13.328125 10.28125 C-13.32296875 11.2609375 -13.3178125 12.240625 -13.3125 13.25 C-13.31765625 14.2296875 -13.3228125 15.209375 -13.328125 16.21875 C-13.31325045 18.91888152 -13.31325045 18.91888152 -11.0625 20.75 C-7.5625 21.16666667 -7.5625 21.16666667 -4.0625 20.75 C-3.4025 19.76 -2.7425 18.77 -2.0625 17.75 C-0.4125 18.08 1.2375 18.41 2.9375 18.75 C3.2675 19.74 3.5975 20.73 3.9375 21.75 C0.77386364 26.33181818 0.77386364 26.33181818 -2.0625 27.75 C-11.89470489 28.78032087 -11.89470489 28.78032087 -16.1171875 26.7734375 C-19.74215448 23.83378766 -21.80107833 20.76233889 -22.3984375 16.1640625 C-22.48210054 10.19052131 -22.31121166 6.34320179 -18.0625 1.75 C-13.04531642 -2.67692669 -5.95048779 -2.42877053 0 0 Z " fill="#0C0C0C" transform="translate(197.0625,321.25)"></path>
<path d="M0 0 C1.36098253 4.08294758 0.12071252 5.47939522 -1.625 9.375 C-8.7705902 26.08723992 -11.22572917 43.66243836 -11.25 61.6875 C-11.25233643 62.47057526 -11.25467285 63.25365051 -11.25708008 64.06045532 C-11.27059807 76.03171145 -10.4134898 87.23423723 -8 99 C4.54 99 17.08 99 30 99 C30 99.33 30 99.66 30 100 C18.78 100.33 7.56 100.66 -4 101 C-4 101.33 -4 101.66 -4 102 C-14.23 102 -24.46 102 -35 102 C-35 101.67 -35 101.34 -35 101 C-27.41 100.67 -19.82 100.34 -12 100 C-12.309375 97.81375 -12.61875 95.6275 -12.9375 93.375 C-13.11152344 92.14523437 -13.28554687 90.91546875 -13.46484375 89.6484375 C-13.77887011 87.50755706 -14.11856532 85.36966121 -14.51855469 83.24316406 C-17.27789516 64.65539591 -16.31846928 42.99281026 -11 25 C-10.79681152 24.3002002 -10.59362305 23.60040039 -10.38427734 22.87939453 C-5.84852518 7.62148001 -5.84852518 7.62148001 -2 1 C-1.34 0.67 -0.68 0.34 0 0 Z " fill="#D22F31" transform="translate(119,187)"></path>
<path d="M0 0 C0 0.66 0 1.32 0 2 C-20.22385128 10.10605941 -38.31352901 15.21697845 -60.25 15.25 C-61.30815918 15.25350464 -61.30815918 15.25350464 -62.38769531 15.25708008 C-74.13832003 15.27174836 -85.46889431 14.32839634 -97 12 C-97.33 11.01 -97.66 10.02 -98 9 C-97.37883301 9.06058594 -96.75766602 9.12117188 -96.11767578 9.18359375 C-66.38123001 12.00890926 -32.15403654 15.16697686 -4.93359375 -0.16381836 C-3 -1 -3 -1 0 0 Z " fill="#D02628" transform="translate(313,381)"></path>
<path d="M0 0 C2.64 0 5.28 0 8 0 C8 9.57 8 19.14 8 29 C5.36 29 2.72 29 0 29 C0 19.43 0 9.86 0 0 Z " fill="#1C1C1C" transform="translate(206,320)"></path>
<path d="M0 0 C1.6953125 1.18359375 1.6953125 1.18359375 3 3 C3.3984375 5.59375 3.3984375 5.59375 3.375 8.5 C3.38273437 9.4590625 3.39046875 10.418125 3.3984375 11.40625 C3 14 3 14 1.6953125 15.81640625 C-1.1784012 17.82270867 -3.63021347 17.42122332 -7 17 C-8.9375 15.5625 -8.9375 15.5625 -10 13 C-10.537354 8.87524039 -10.54136452 5.30564384 -8.9375 1.4375 C-5.93408933 -0.79083695 -3.62113687 -0.45264211 0 0 Z " fill="#F7F7F7" transform="translate(353,326)"></path>
<path d="M0 0 C3.0625 0.5 3.0625 0.5 5.4375 1.9375 C7.84476912 5.73357822 7.70463079 9.12548398 7.0625 13.5 C6 16.0625 6 16.0625 4.0625 17.5 C0.41307669 18.02134619 -1.84372489 18.31151056 -4.875 16.0625 C-6.47743249 12.19780987 -6.48198293 8.62143332 -5.9375 4.5 C-4.4251683 1.05524445 -3.71278501 0.63196341 0 0 Z " fill="#F6F6F6" transform="translate(234.9375,325.5)"></path>
<path d="M0 0 C0.33 0 0.66 0 1 0 C1 2.31 1 4.62 1 7 C1.66 7 2.32 7 3 7 C4.32 15.25 5.64 23.5 7 32 C19.54 32 32.08 32 45 32 C45 32.33 45 32.66 45 33 C33.78 33.33 22.56 33.66 11 34 C11 34.33 11 34.66 11 35 C0.77 35 -9.46 35 -20 35 C-20 34.67 -20 34.34 -20 34 C-12.41 33.67 -4.82 33.34 3 33 C2.690625 30.81375 2.38125 28.6275 2.0625 26.375 C1.88847656 25.14523437 1.71445313 23.91546875 1.53515625 22.6484375 C1.2076858 20.41590176 0.8491897 18.18730004 0.4375 15.96875 C-0.0519484 12.64749302 -0.09673928 9.48044957 -0.0625 6.125 C-0.05347656 4.97257812 -0.04445313 3.82015625 -0.03515625 2.6328125 C-0.02355469 1.76398438 -0.01195313 0.89515625 0 0 Z " fill="#D64345" transform="translate(104,254)"></path>
<path d="M0 0 C1.93719378 -0.05406122 3.87481921 -0.09282025 5.8125 -0.125 C6.89144531 -0.14820313 7.97039062 -0.17140625 9.08203125 -0.1953125 C12 0 12 0 15 2 C15.38896226 5.04687103 15.62444849 7.07727542 13.86328125 9.6796875 C11.16483263 11.59179574 9.07595843 11.29277285 5.8125 11.1875 C4.72582031 11.16042969 3.63914062 11.13335937 2.51953125 11.10546875 C1.27236328 11.05326172 1.27236328 11.05326172 0 11 C0 7.37 0 3.74 0 0 Z " fill="#F6F6F6" transform="translate(308,332)"></path>
<path d="M0 0 C0 0.66 0 1.32 0 2 C-31.16734015 14.49239363 -31.16734015 14.49239363 -42 14 C-41.67 13.01 -41.34 12.02 -41 11 C-38.00125075 9.93794297 -35.07598857 9.22429895 -31.96801758 8.57641602 C-26.40090533 7.41005223 -21.06914008 5.83166183 -15.6875 4 C-14.5109082 3.60941406 -14.5109082 3.60941406 -13.31054688 3.2109375 C-9.01218953 1.79009181 -9.01218953 1.79009181 -4.93676758 -0.15234375 C-3 -1 -3 -1 0 0 Z " fill="#D12D2F" transform="translate(313,381)"></path>
<path d="M0 0 C8.36923077 -0.36923077 8.36923077 -0.36923077 11.5625 1.5 C12.036875 1.995 12.51125 2.49 13 3 C12.625 5.9375 12.625 5.9375 12 9 C9.47524538 10.26237731 7.68799534 10.09856404 4.875 10.0625 C3.26625 10.041875 1.6575 10.02125 0 10 C0 6.7 0 3.4 0 0 Z " fill="#E9E9E9" transform="translate(308,316)"></path>
<path d="M0 0 C1.60875 -0.04125 3.2175 -0.0825 4.875 -0.125 C5.77992187 -0.14820313 6.68484375 -0.17140625 7.6171875 -0.1953125 C10 0 10 0 12 2 C12.25 5 12.25 5 12 8 C10 10 10 10 7.6171875 10.1953125 C6.71226563 10.17210937 5.80734375 10.14890625 4.875 10.125 C2.461875 10.063125 2.461875 10.063125 0 10 C0 6.7 0 3.4 0 0 Z " fill="#FCFCFC" transform="translate(119,317)"></path>
<path d="M0 0 C1.8125 1.25 1.8125 1.25 3 3 C3 4.32 3 5.64 3 7 C-0.96 7 -4.92 7 -9 7 C-7.61133652 1.44534609 -5.99008641 -0.89851296 0 0 Z " fill="#DEDEDE" transform="translate(271,325)"></path>
<path d="M0 0 C3.625 0.375 3.625 0.375 7 1 C7.33 2.98 7.66 4.96 8 7 C4.04 7 0.08 7 -4 7 C-2 2 -2 2 0 0 Z " fill="#DDDDDD" transform="translate(155,325)"></path>
<path d="M0 0 C12.66970387 3.07517084 12.66970387 3.07517084 18 5 C17.67 5.99 17.34 6.98 17 8 C14.415141 7.3808361 11.83223828 6.75492318 9.25 6.125 C8.52039063 5.95097656 7.79078125 5.77695313 7.0390625 5.59765625 C3.46714972 4.72091402 0.20626159 3.87313177 -3 2 C-2.01 2 -1.02 2 0 2 C0 1.34 0 0.68 0 0 Z " fill="#D33335" transform="translate(283,107)"></path>
<path d="M0 0 C3 0.125 3 0.125 4 1.125 C4.1875 3.5625 4.1875 3.5625 4 6.125 C3.34 6.785 2.68 7.445 2 8.125 C-2.55555556 7.56944444 -2.55555556 7.56944444 -4 6.125 C-4.125 3.625 -4.125 3.625 -4 1.125 C-3 0.125 -3 0.125 0 0 Z " fill="#090909" transform="translate(210,308.875)"></path>
<path d="M0 0 C0.33 0.66 0.66 1.32 1 2 C-1.06081361 2.50690584 -3.12373526 3.00524619 -5.1875 3.5 C-6.91033203 3.91765625 -6.91033203 3.91765625 -8.66796875 4.34375 C-11.56818829 4.91495385 -14.06096385 5.13283779 -17 5 C-16.67 4.01 -16.34 3.02 -16 2 C-4.37209302 -2.18604651 -4.37209302 -2.18604651 0 0 Z " fill="#D23133" transform="translate(288,390)"></path>
<path d="M0 0 C-9.16708121 5.04704471 -20.96653912 2.75658348 -31 2 C-31 1.67 -31 1.34 -31 1 C-9.27659574 -0.19148936 -9.27659574 -0.19148936 0 0 Z " fill="#E07374" transform="translate(272,272)"></path>
<path d="M0 0 C0.33 0.66 0.66 1.32 1 2 C-3.40914783 3.10228696 -7.48382401 3.07654536 -12 3 C-7.97869817 0.31913211 -4.73968522 -1.57989507 0 0 Z " fill="#D84C4D" transform="translate(203,163)"></path>
<path d="M0 0 C0.33 0 0.66 0 1 0 C2.32286246 4.96073422 2.08893197 9.91111512 2 15 C1.67 15 1.34 15 1 15 C0.67 13.02 0.34 11.04 0 9 C-0.33 9 -0.66 9 -1 9 C-0.67 6.03 -0.34 3.06 0 0 Z " fill="#DC5F60" transform="translate(278,180)"></path>
<path d="M0 0 C0.33 0.66 0.66 1.32 1 2 C-1.31 2.33 -3.62 2.66 -6 3 C-6 2.34 -6 1.68 -6 1 C-6.99 0.67 -7.98 0.34 -9 0 C-2.25 -1.125 -2.25 -1.125 0 0 Z " fill="#D64244" transform="translate(288,390)"></path>
<path d="M0 0 C1.2077558 3.62326739 0.54311128 4.64146369 -1 8 C-1.99 7.67 -2.98 7.34 -4 7 C-3.39816251 4.97954558 -2.72693904 2.97888961 -2 1 C-1.34 0.67 -0.68 0.34 0 0 Z " fill="#D22F31" transform="translate(119,187)"></path>
<path d="M0 0 C2.97 0.495 2.97 0.495 6 1 C5.01 1.495 5.01 1.495 4 2 C4 2.66 4 3.32 4 4 C1.69 3.67 -0.62 3.34 -3 3 C-2.01 2.67 -1.02 2.34 0 2 C0 1.34 0 0.68 0 0 Z " fill="#D74849" transform="translate(283,107)"></path>
</svg><style>@media (prefers-color-scheme: light) { :root { filter: none; } }
@media (prefers-color-scheme: dark) { :root { filter: invert(100%); } }
</style></svg>